<svg width="37" height="37" viewBox="0 0 37 37" fill="none" xmlns="http://www.w3.org/2000/svg">
<g clip-path="url(#clip0)">
<path d="M29.9299 8.62307C29.7565 8.55804 29.5602 8.58318 29.4044 8.68349C24.2774 11.9874 21.3888 10.3275 18.4999 13.2162L17.3258 15.5645L18.4999 18.4999L34.3508 10.281L29.9299 8.62307Z" fill="white"/>
<path d="M7.59551 8.68349C7.43986 8.58318 7.24352 8.55804 7.07008 8.62307L2.64905 10.281L18.4999 18.4999V13.2162C15.6112 10.3275 12.7225 11.9874 7.59551 8.68349Z" fill="white"/>
<path d="M0.612433 9.62479L1.16511 8.58881C1.31773 8.30279 1.67327 8.19454 1.95936 8.34716L36.1475 26.5808C36.4336 26.7333 36.5418 27.089 36.3892 27.3751L35.8365 28.4112C35.6839 28.6972 35.3284 28.8054 35.0423 28.6528L21.4206 21.3879L21.03 20.3186L19.8255 20.5371L0.854156 10.4191C0.567991 10.2666 0.459812 9.91088 0.612433 9.62479Z" fill="white"/>
<path d="M15.5801 15.6121C15.1332 16.0652 14.7882 16.6251 14.5884 17.2595L14.1337 17.5021L21.4198 21.388C21.8666 20.9349 22.2117 20.375 22.4116 19.7406L22.8663 19.4981L15.5801 15.6121Z" fill="white"/>
<path d="M36.3884 9.62479L35.8357 8.58881C35.6831 8.30279 35.3275 8.19454 35.0414 8.34716L20.2346 16.2441C19.938 16.4023 19.5923 16.4013 19.276 16.2875C19.0335 16.2003 18.7729 16.1517 18.5 16.1517C17.4031 16.1517 16.487 16.9052 16.2303 17.9221C16.1492 18.2437 15.9567 18.5257 15.6641 18.6818L0.853287 26.5808C0.567194 26.7333 0.458943 27.089 0.611564 27.3751L1.16424 28.4112C1.31686 28.6972 1.6724 28.8054 1.95849 28.6528L16.7653 20.7558C17.0619 20.5976 17.4076 20.5986 17.724 20.7124C17.9665 20.7996 18.2271 20.8482 18.4999 20.8482C19.5968 20.8482 20.5129 20.0948 20.7696 19.0778C20.8507 18.7562 21.0433 18.4742 21.3359 18.3181L36.1466 10.4191C36.4327 10.2666 36.541 9.91088 36.3884 9.62479Z" fill="white"/>
<path d="M36.9506 26.7702C36.8628 26.4816 36.6678 26.2445 36.4017 26.1026L22.1468 18.5L36.4017 10.8974C36.6678 10.7555 36.8627 10.5184 36.9505 10.2298C37.0383 9.94127 37.0085 9.63589 36.8665 9.36974L36.3139 8.33369C36.0208 7.78441 35.3356 7.57593 34.7864 7.86889L32.6137 9.02764L29.8409 8.01096C29.6786 7.95141 29.4976 7.97295 29.3537 8.06884C26.7719 9.78995 24.7848 10.2038 23.0316 10.569C21.3816 10.9126 19.9384 11.2131 18.5 12.4738C17.0616 11.2131 15.6184 10.9126 13.9684 10.569C12.2152 10.2039 10.2281 9.78995 7.64633 8.06884C7.50245 7.97288 7.3215 7.95141 7.15912 8.01096L4.38628 9.02771L2.2136 7.86896C1.66432 7.57607 0.97911 7.78456 0.686152 8.33376L0.133477 9.36974C-0.00852132 9.63581 -0.0382941 9.94135 0.0494344 10.2299C0.137235 10.5184 0.332203 10.7555 0.598279 10.8975L14.8531 18.5L0.598207 26.1026C0.332131 26.2445 0.137235 26.4816 0.0494344 26.7702C-0.0383663 27.0587 -0.00852132 27.3642 0.133477 27.6303L0.686152 28.6663C0.889141 29.0468 1.28038 29.2638 1.68426 29.2638C1.86333 29.2638 2.04493 29.2211 2.21367 29.1311L17.0205 21.2341C17.2141 21.1308 17.4296 21.1825 17.5407 21.2225C17.8504 21.3338 18.1731 21.3903 18.5001 21.3903C19.8026 21.3903 20.9371 20.5196 21.28 19.2662L35.8917 27.0591C35.8958 27.0613 35.9082 27.068 35.9136 27.0858C35.919 27.1037 35.9124 27.1161 35.9103 27.1202L35.3576 28.1562C35.3459 28.1782 35.3185 28.1865 35.2966 28.1748L22.4111 21.3025C22.147 21.1616 21.8187 21.2615 21.6778 21.5256C21.537 21.7897 21.6369 22.118 21.901 22.2589L34.7865 29.1312C34.9552 29.2211 35.1368 29.2638 35.3159 29.2638C35.7197 29.2638 36.111 29.0468 36.314 28.6664L36.8667 27.6304C37.0085 27.3642 37.0383 27.0587 36.9506 26.7702ZM23.2526 11.6302C24.9611 11.2744 27.0759 10.8339 29.7238 9.12259L31.331 9.71191L19.9795 15.7659C19.7859 15.8692 19.5705 15.8175 19.4594 15.7776C19.3226 15.7284 19.1831 15.6906 19.042 15.6629V13.4464C20.3277 12.2399 21.626 11.9689 23.2526 11.6302ZM1.08649 9.91432C1.08107 9.89647 1.08765 9.88404 1.08982 9.87992L1.64249 8.84395C1.6542 8.82198 1.68159 8.81367 1.70348 8.82537L7.08686 11.6965C7.35084 11.8373 7.67921 11.7375 7.82012 11.4733C7.96096 11.2092 7.86102 10.8809 7.59697 10.7401L5.66904 9.71183L7.27626 9.12252C9.92416 10.8339 12.0389 11.2743 13.7474 11.6302C15.374 11.9689 16.6723 12.2399 17.958 13.4464V15.6615C17.7125 15.7083 17.4772 15.7863 17.2565 15.8918L9.94822 11.9941C9.6841 11.8533 9.3558 11.9531 9.21496 12.2172C9.07412 12.4813 9.17406 12.8096 9.43811 12.9505L16.3116 16.6164C16.0404 16.933 15.8356 17.3118 15.7201 17.7339L1.10839 9.94098C1.10427 9.93882 1.09191 9.93217 1.08649 9.91432ZM20.2442 18.9451C20.0419 19.7465 19.3246 20.3062 18.5 20.3062C18.2985 20.3062 18.0991 20.2713 17.9074 20.2024C17.4237 20.0284 16.9275 20.0551 16.5104 20.2776L1.70348 28.1746C1.68166 28.1864 1.6542 28.1779 1.64249 28.156L1.08982 27.12C1.08765 27.1159 1.081 27.1035 1.08649 27.0857C1.09191 27.0678 1.10434 27.0612 1.10839 27.059L15.9191 19.16C16.3347 18.9383 16.6318 18.5458 16.7558 18.0548C16.9581 17.2534 17.6754 16.6937 18.5 16.6937C18.7016 16.6937 18.9009 16.7287 19.0926 16.7975C19.5763 16.9715 20.0725 16.9447 20.4897 16.7223L35.2965 8.82537C35.3184 8.81367 35.3458 8.82205 35.3575 8.84395L35.9102 9.87992C35.9124 9.88404 35.919 9.8964 35.9135 9.91425C35.908 9.9321 35.8957 9.93874 35.8916 9.94091L21.0809 17.84C20.6653 18.0616 20.3682 18.4541 20.2442 18.9451Z" fill="#C79984"/>
<path d="M18.5059 17.958H18.5001C18.2008 17.958 17.9611 18.2007 17.9611 18.5C17.9611 18.7993 18.2066 19.042 18.506 19.042C18.8053 19.042 19.048 18.7993 19.048 18.5C19.0479 18.2007 18.8053 17.958 18.5059 17.958Z" fill="white"/>
</g>
<defs>
<clipPath id="clip0">
<rect width="37" height="37" fill="white"/>
</clipPath>
</defs>
</svg>
