<svg width="22" height="22" viewBox="0 0 22 22" fill="none" xmlns="http://www.w3.org/2000/svg">
<g clip-path="url(#clip0)">
<path d="M10.9945 1.94335e-07C9.72889 1.94335e-07 8.70288 1.02601 8.70288 2.29165C8.70503 2.40161 8.71517 2.51131 8.73313 2.6198C8.76617 2.84689 8.96203 3.01452 9.19148 3.01215C9.23522 3.01211 9.27871 3.00592 9.32073 2.99381C10.4159 2.66978 11.5815 2.66978 12.6766 2.99381C12.8069 3.02603 12.9446 3.00102 13.0552 2.92506C13.1682 2.8478 13.2436 2.7268 13.2633 2.5914C13.2798 2.49197 13.289 2.39151 13.2908 2.29075C13.2903 1.02511 12.2639 -0.000515431 10.9982 1.94335e-07C10.997 1.94335e-07 10.9958 1.94335e-07 10.9945 1.94335e-07Z" fill="#F57C00"/>
<path d="M13.7445 18.3334H8.24448C7.99135 18.3334 7.78613 18.5386 7.78613 18.7917C7.78613 20.5636 9.22254 22.0001 10.9945 22.0001C12.7664 22.0001 14.2028 20.5637 14.2028 18.7917C14.2028 18.5386 13.9977 18.3334 13.7445 18.3334Z" fill="#FFA000"/>
<path d="M19.5387 16.6916C19.3938 16.3717 19.2114 16.0142 19.0098 15.62C17.7694 13.5189 17.0631 11.1457 16.9528 8.70835C16.9528 5.0756 15.0278 2.40994 12.0504 1.91769C10.313 1.63844 8.54207 2.15471 7.22693 3.32385C5.7711 4.59469 4.96342 6.45244 5.02693 8.38385C4.98899 10.9373 4.28366 13.4364 2.98093 15.6328C2.78383 16.0215 2.60418 16.3753 2.46118 16.6907C2.04808 17.6018 2.45173 18.6752 3.36284 19.0884C3.60045 19.1962 3.85852 19.2513 4.11943 19.25H17.8841C18.8844 19.253 19.6978 18.4445 19.7008 17.4442C19.7016 17.1847 19.6466 16.9281 19.5395 16.6916H19.5387V16.6916Z" fill="#FFC107"/>
<path d="M4.88311 17.4166C4.62998 17.4166 4.42476 17.2114 4.4248 16.9582C4.4248 16.8869 4.44143 16.8167 4.47336 16.7529L4.62096 16.4633C5.99003 14.0996 6.76188 11.4377 6.86956 8.70828C6.86956 6.38268 7.95031 3.66663 10.9946 3.66663C11.2477 3.66663 11.4529 3.87184 11.4529 4.12497C11.4529 4.3781 11.2477 4.58332 10.9946 4.58332C8.01721 4.58332 7.78621 7.74032 7.78621 8.70832C7.6839 11.5836 6.87716 14.3898 5.43681 16.8804L5.29381 17.1637C5.21595 17.319 5.05692 17.4169 4.88311 17.4166Z" fill="#FFD54F"/>
</g>
<defs>
<clipPath id="clip0">
<rect width="22" height="22" fill="white"/>
</clipPath>
</defs>
</svg>
