<svg width="44" height="44" viewBox="0 0 44 44" fill="none" xmlns="http://www.w3.org/2000/svg">
<path d="M0 36.5569L9.1203 31.6595C9.30233 31.5725 9.52047 31.6096 9.6632 31.7519L12.2185 34.2995C12.3613 34.4418 12.3985 34.6592 12.3111 34.8406L7.39875 43.9333L0 36.5569Z" fill="white"/>
<path d="M3.6994 40.2452L7.39882 43.9334L12.3112 34.8406C12.3986 34.6593 12.3613 34.4418 12.2186 34.2995L10.9409 33.0256L3.6994 40.2452Z" fill="white"/>
<path d="M28.3533 7.40052C27.0242 6.07544 27.0293 3.91443 28.3646 2.58324C29.6998 1.25205 31.8675 1.24698 33.1965 2.57207C34.5255 3.89715 34.5206 6.05816 33.1853 7.38935C31.85 8.72053 29.6825 8.72552 28.3533 7.40052Z" fill="white"/>
<path d="M22.6643 5.88567C21.3352 4.56058 21.3402 2.39957 22.6755 1.06838C24.0108 -0.262892 26.1784 -0.267879 27.5075 1.05721C28.8366 2.38229 28.8316 4.5433 27.4962 5.87449C26.1609 7.20568 23.9934 7.21075 22.6643 5.88567Z" fill="white"/>
<path d="M16.9267 7.16591C15.5977 5.84082 15.6027 3.67981 16.938 2.34862C18.2732 1.01744 20.4408 1.01236 21.7699 2.33745C23.0989 3.66244 23.0938 5.82346 21.7586 7.15473C20.4234 8.48592 18.2558 8.49091 16.9267 7.16591Z" fill="white"/>
<path d="M12.6275 11.1935C11.2985 9.86841 11.3035 7.7074 12.6388 6.37621C13.974 5.04502 16.1417 5.03995 17.4707 6.36503C18.7997 7.69012 18.7948 9.85113 17.4595 11.1823C16.1242 12.5135 13.9566 12.5186 12.6275 11.1935Z" fill="white"/>
<path d="M10.2206 16.5578C8.89156 15.2327 8.89655 13.0717 10.2318 11.7405C11.5671 10.4092 13.7346 10.4042 15.0638 11.7293C16.3928 13.0544 16.3878 15.2154 15.0525 16.5466C13.7172 17.8778 11.5496 17.8829 10.2206 16.5578Z" fill="white"/>
<path d="M9.68409 22.3971C8.35505 21.072 8.36004 18.911 9.69536 17.5798C11.0306 16.2486 13.1982 16.2436 14.5273 17.5686C15.8563 18.8937 15.8513 21.0547 14.5161 22.3859C13.1808 23.7171 11.0132 23.7222 9.68409 22.3971Z" fill="white"/>
<path d="M9.57676 28.2699C8.24772 26.9448 8.25271 24.7838 9.58803 23.4526C10.9233 22.1214 13.0909 22.1164 14.4199 23.4415C15.749 24.7665 15.744 26.9276 14.4087 28.2587C13.0734 29.5899 10.9059 29.595 9.57676 28.2699Z" fill="white"/>
<path d="M36.6438 15.6659C35.3148 14.3409 35.3198 12.1798 36.6551 10.8486C37.9903 9.5174 40.158 9.51242 41.487 10.8374C42.816 12.1624 42.8111 14.3235 41.4758 15.6547C40.1404 16.9859 37.9729 16.9909 36.6438 15.6659Z" fill="white"/>
<path d="M38.1633 21.3376C36.8343 20.0126 36.8392 17.8515 38.1745 16.5203C39.5098 15.189 41.6774 15.184 43.0065 16.5091C44.3355 17.8341 44.3305 19.9952 42.9952 21.3264C41.66 22.6577 39.4923 22.6626 38.1633 21.3376Z" fill="white"/>
<path d="M36.8793 27.0578C35.5502 25.7328 35.5552 23.5717 36.8905 22.2406C38.2257 20.9094 40.3934 20.9044 41.7224 22.2294C43.0514 23.5544 43.0465 25.7155 41.7112 27.0467C40.3759 28.3779 38.2083 28.3829 36.8793 27.0578Z" fill="white"/>
<path d="M32.0789 31.2788C30.7741 29.9779 30.779 27.8563 32.0899 26.5493C33.4008 25.2424 35.5288 25.2375 36.8336 26.5383C38.1384 27.8392 38.1335 29.9608 36.8226 31.2677C35.5118 32.5747 33.3837 32.5796 32.0789 31.2788Z" fill="white"/>
<path d="M27.4587 33.7438C26.1297 32.4188 26.1347 30.2577 27.47 28.9265C28.8053 27.5953 30.9728 27.5903 32.3018 28.9153C33.6309 30.2403 33.6259 32.4014 32.2906 33.7326C30.9554 35.0638 28.7877 35.0687 27.4587 33.7438Z" fill="white"/>
<path d="M21.6017 34.2785C20.2726 32.9535 20.2776 30.7924 21.6129 29.4613C22.9482 28.1301 25.1158 28.1251 26.4448 29.4501C27.7739 30.7751 27.7689 32.9362 26.4337 34.2674C25.0983 35.5985 22.9307 35.6035 21.6017 34.2785Z" fill="white"/>
<path d="M15.711 34.3855C14.3819 33.0605 14.3869 30.8994 15.7222 29.5682C17.0575 28.237 19.2251 28.232 20.5541 29.557C21.8832 30.882 21.8782 33.0431 20.543 34.3743C19.2076 35.7055 17.04 35.7105 15.711 34.3855Z" fill="white"/>
<path d="M9.55676 34.4055C8.29935 33.1519 8.47011 30.9419 9.93741 29.4791C11.4047 28.0162 13.6214 27.846 14.8789 29.0996C16.1363 30.3532 15.9655 32.5632 14.4982 34.026C13.0308 35.4888 10.8142 35.6591 9.55676 34.4055Z" fill="white"/>
<path d="M14.8788 29.0996L9.55676 34.4055C10.8142 35.659 13.0308 35.4888 14.4981 34.0259C15.9654 32.5632 16.1362 30.3532 14.8788 29.0996Z" fill="#C79984"/>
<path d="M32.6728 11.3632C31.3437 10.0382 31.3487 7.87708 32.684 6.54589C34.0193 5.2147 36.1869 5.20963 37.5159 6.53471C38.845 7.8598 38.84 10.0208 37.5048 11.352C36.1695 12.6833 34.0019 12.6883 32.6728 11.3632Z" fill="white"/>
<path d="M37.5159 6.53476C37.5153 6.53416 37.5146 6.53356 37.514 6.53296L32.6709 11.3613C32.6715 11.3619 32.6721 11.3626 32.6727 11.3632C34.0017 12.6883 36.1693 12.6833 37.5047 11.352C38.8401 10.0209 38.8451 7.85976 37.5159 6.53476Z" fill="#C79984"/>
</svg>
