<svg width="48" height="48" viewBox="0 0 48 48" fill="none" xmlns="http://www.w3.org/2000/svg">
<path d="M23.9999 47.9997C37.2546 47.9997 47.9997 37.2546 47.9997 23.9999C47.9997 10.7451 37.2546 0 23.9999 0C10.7451 0 0 10.7451 0 23.9999C0 37.2546 10.7451 47.9997 23.9999 47.9997Z" fill="white"/>
<path d="M48 23.9999C48 37.255 37.255 48 23.9999 48C21.0255 48 18.1774 47.4585 15.549 46.4699C17.6658 47.0808 19.9031 47.4083 22.2164 47.4083C35.4715 47.4083 46.2165 36.6633 46.2165 23.4083C46.2165 13.1248 39.7475 4.35101 30.6567 0.935425C40.6735 3.82114 48 13.0545 48 23.9999Z" fill="#D88E65"/>
<path d="M23.9998 43.954C35.0201 43.954 43.9538 35.0203 43.9538 24C43.9538 12.9797 35.0201 4.04602 23.9998 4.04602C12.9795 4.04602 4.04581 12.9797 4.04581 24C4.04581 35.0203 12.9795 43.954 23.9998 43.954Z" fill="#D88E65"/>
<path d="M43.9541 23.9999C43.9541 35.0206 35.0204 43.9542 23.9998 43.9542C21.5564 43.9542 19.216 43.5149 17.0529 42.7113C18.6686 43.1343 20.3645 43.3587 22.1132 43.3587C33.1339 43.3587 42.0675 34.425 42.0675 23.4054C42.0675 14.8244 36.6506 7.5084 29.0504 4.69019C37.6257 6.92743 43.9541 14.7242 43.9541 23.9999Z" fill="#D88E65"/>
<path d="M31.1056 34.0384H24.617L24.4593 33.9738H20.4067L20.3442 34.0384H16.8939C16.556 34.0384 16.2821 33.7645 16.2821 33.4267V24.0109L16.3719 23.8555V21.0449L16.2821 20.9099V18.5785C16.2821 18.2406 16.5561 17.9668 16.8939 17.9668H31.1055C31.4433 17.9668 31.7172 18.2407 31.7172 18.5785V20.9099L31.6405 21.0001V23.918L31.7174 24.0109V33.4266C31.7174 33.7645 31.4434 34.0384 31.1056 34.0384Z" fill="white"/>
<path d="M31.7175 18.5782V33.4269C31.7175 33.7641 31.4439 34.0387 31.1057 34.0387H29.1796C29.5178 34.0387 29.7914 33.7641 29.7914 33.4269V18.5782C29.7914 18.241 29.5178 17.9664 29.1796 17.9664H31.1057C31.4439 17.9664 31.7175 18.241 31.7175 18.5782Z" fill="#D88E65"/>
<path d="M16.2823 20.91H31.7174V24.011H16.2823V20.91Z" fill="#D88E65"/>
<path d="M29.7914 20.91H31.7173V24.011H29.7914V20.91Z" fill="white"/>
<path d="M24.617 34.0384H20.3443V27.3723C20.3443 27.1413 20.5316 26.954 20.7626 26.954H24.1987C24.4297 26.954 24.617 27.1413 24.617 27.3723V34.0384Z" fill="white"/>
<path d="M24.6174 27.3722V34.0388H22.6586V27.3722C22.6586 27.1409 22.4716 26.954 22.2404 26.954H24.1992C24.4295 26.954 24.6174 27.1409 24.6174 27.3722Z" fill="#D88E65"/>
<path d="M23.9998 41.8691C23.6115 41.8691 23.2967 41.5544 23.2967 41.1659V40.3018C23.2967 39.9134 23.6115 39.5986 23.9998 39.5986C24.3881 39.5986 24.7029 39.9134 24.7029 40.3018V41.1659C24.7028 41.5544 24.3881 41.8691 23.9998 41.8691Z" fill="white"/>
<path d="M12.4727 13.1759C12.2928 13.1759 12.1128 13.1073 11.9754 12.9699L11.3644 12.3588C11.0898 12.0842 11.0899 11.639 11.3644 11.3645C11.639 11.09 12.0841 11.0899 12.3588 11.3646L12.9699 11.9757C13.2444 12.2503 13.2444 12.6955 12.9699 12.97C12.8325 13.1073 12.6525 13.1759 12.4727 13.1759Z" fill="white"/>
<path d="M36.1381 36.8414C35.9582 36.8414 35.7782 36.7728 35.6408 36.6356L35.0298 36.0245C34.7552 35.7498 34.7552 35.3047 35.0298 35.0301C35.3045 34.7556 35.7496 34.7556 36.0242 35.0301L36.6352 35.6412C36.9098 35.9158 36.9098 36.361 36.6352 36.6356C36.498 36.7727 36.318 36.8414 36.1381 36.8414Z" fill="white"/>
<path d="M7.69786 24.7031H6.83368C6.44537 24.7031 6.13055 24.3884 6.13055 24C6.13055 23.6116 6.44537 23.2969 6.83368 23.2969H7.69786C8.08618 23.2969 8.40099 23.6116 8.40099 24C8.40099 24.3884 8.08618 24.7031 7.69786 24.7031Z" fill="white"/>
<path d="M41.166 24.7031H40.3018C39.9134 24.7031 39.5987 24.3884 39.5987 24C39.5987 23.6116 39.9134 23.2969 40.3018 23.2969H41.166C41.5544 23.2969 41.8691 23.6116 41.8691 24C41.8691 24.3884 41.5544 24.7031 41.166 24.7031Z" fill="white"/>
<path d="M11.8615 36.8413C11.6816 36.8413 11.5016 36.7727 11.3643 36.6354C11.0897 36.3608 11.0898 35.9156 11.3643 35.6411L11.9753 35.03C12.2499 34.7555 12.6951 34.7554 12.9697 35.0301C13.2443 35.3047 13.2442 35.7499 12.9697 36.0244L12.3587 36.6355C12.2214 36.7726 12.0414 36.8413 11.8615 36.8413Z" fill="white"/>
<path d="M35.5271 13.1759C35.3472 13.1759 35.1673 13.1073 35.0299 12.97C34.7552 12.6954 34.7552 12.2502 35.0298 11.9757L35.6409 11.3646C35.9156 11.0899 36.3606 11.09 36.6352 11.3645C36.9099 11.6391 36.9099 12.0843 36.6353 12.3588L36.0242 12.9699C35.887 13.1073 35.707 13.1759 35.5271 13.1759Z" fill="white"/>
<path d="M23.9999 15.5108C24.8388 15.5108 25.5189 14.8307 25.5189 13.9918C25.5189 13.1529 24.8388 12.4728 23.9999 12.4728C23.161 12.4728 22.4809 13.1529 22.4809 13.9918C22.4809 14.8307 23.161 15.5108 23.9999 15.5108Z" fill="#D88E65"/>
<path d="M25.5193 13.992C25.5193 14.8312 24.8391 15.5105 23.9998 15.5105C23.4323 15.5105 22.938 15.2002 22.6779 14.7387C22.7434 14.7473 22.8108 14.7522 22.8792 14.7522C23.7185 14.7522 24.3987 14.0729 24.3987 13.2337C24.3987 12.9621 24.3274 12.7067 24.2021 12.4861C24.946 12.5842 25.5193 13.2212 25.5193 13.992Z" fill="white"/>
<path d="M23.6027 2.9487L19.8441 9.32144C19.6627 9.62884 19.8844 10.0169 20.2413 10.0169H23.9999H27.7585C28.1154 10.0169 28.337 9.62884 28.1557 9.32144L24.3971 2.9487C24.2186 2.64617 23.7811 2.64617 23.6027 2.9487Z" fill="#D88E65"/>
</svg>
