<svg width="36" height="36" viewBox="0 0 36 36" fill="none" xmlns="http://www.w3.org/2000/svg">
<path d="M5.86047 33.2069V1.86207C5.86047 0.833677 6.69415 0 7.72254 0H35.0329C35.3757 0 35.6536 0.277892 35.6536 0.62069V31.6552L5.86047 33.2069Z" fill="white"/>
<path d="M31.9294 3.10339H9.58462C9.24182 3.10339 8.96393 3.38129 8.96393 3.72408V27.3103C8.96393 27.6531 9.24182 27.931 9.58462 27.931H31.9294C32.2722 27.931 32.5501 27.6531 32.5501 27.3103V3.72408C32.5501 3.38129 32.2722 3.10339 31.9294 3.10339Z" fill="#C79984"/>
<path d="M7.72254 31.0344H35.6536V35.3792C35.6536 35.722 35.3757 35.9999 35.0329 35.9999H7.72254C6.69415 35.9999 5.86047 35.1663 5.86047 34.1379V32.8965C5.86047 31.8681 6.69415 31.0344 7.72254 31.0344Z" fill="#C79984"/>
<path d="M32.5501 31.0344V32.8965C32.5501 33.2393 32.2722 33.5172 31.9294 33.5172H9.58458C8.89899 33.5172 8.3432 32.9614 8.3432 32.2758V31.0344H32.5501Z" fill="white"/>
<path d="M21.2056 5.76995L21.9956 6.55996C22.238 6.80235 22.238 7.19535 21.9956 7.43775L20.7579 8.67543L19.529 7.44652C19.2866 7.20413 19.2866 6.81113 19.529 6.56874L20.319 5.77873C20.5614 5.53633 20.9544 5.53633 21.1968 5.77873L21.2056 5.76995Z" fill="white"/>
<path d="M19.517 23.5759L20.7547 22.3382L21.9924 23.5759C22.2348 23.8183 22.2348 24.2113 21.9924 24.4537L21.1936 25.2525C20.9512 25.4949 20.5582 25.4949 20.3158 25.2525L19.5258 24.4625C19.4055 24.3469 19.3368 24.1878 19.3352 24.021C19.3335 23.8543 19.3991 23.6938 19.517 23.5759Z" fill="white"/>
<path d="M13.9294 12.5938C10.6025 12.5938 10.6025 18.4407 13.9294 18.4407C14.264 18.4078 14.5639 18.6472 14.606 18.9807C14.7326 19.698 15.1679 20.3235 15.7964 20.6915C16.4249 21.0595 17.1833 21.133 17.8708 20.8925C18.1756 20.7784 18.5185 20.8953 18.6901 21.1718C19.1249 21.8989 19.9098 22.344 20.757 22.344C21.6042 22.344 22.3891 21.8989 22.8239 21.1718C22.9956 20.8953 23.3385 20.7784 23.6432 20.8925C24.3307 21.133 25.0891 21.0595 25.7177 20.6915C26.3462 20.3235 26.7814 19.698 26.9081 18.9807C26.9488 18.6698 27.2151 18.4381 27.5287 18.4407C29.2046 18.4407 30.0674 17.1621 30.0674 15.5173C30.0674 13.8725 29.1984 12.5938 27.5846 12.5938H27.4977C27.1841 12.5965 26.9178 12.3648 26.877 12.0538C26.7504 11.3366 26.3152 10.7111 25.6866 10.3431C25.0581 9.97508 24.2997 9.9016 23.6122 10.1421C23.3074 10.2562 22.9645 10.1393 22.7929 9.86281C22.3581 9.13571 21.5732 8.69055 20.726 8.69055C19.8788 8.69055 19.0939 9.13571 18.6591 9.86281C18.4874 10.1393 18.1446 10.2562 17.8398 10.1421C17.1523 9.9016 16.3939 9.97508 15.7654 10.3431C15.1368 10.7111 14.7016 11.3366 14.575 12.0538C14.5333 12.3745 14.2524 12.6095 13.9294 12.5938Z" fill="white"/>
<path d="M15.1708 7.44829C15.5136 7.44829 15.7915 7.1704 15.7915 6.8276C15.7915 6.4848 15.5136 6.20691 15.1708 6.20691C14.828 6.20691 14.5501 6.4848 14.5501 6.8276C14.5501 7.1704 14.828 7.44829 15.1708 7.44829Z" fill="white"/>
<path d="M12.0673 9.93108C12.4101 9.93108 12.688 9.65319 12.688 9.31039C12.688 8.96759 12.4101 8.6897 12.0673 8.6897C11.7245 8.6897 11.4467 8.96759 11.4467 9.31039C11.4467 9.65319 11.7245 9.93108 12.0673 9.93108Z" fill="white"/>
<path d="M26.3432 7.44829C26.686 7.44829 26.9639 7.1704 26.9639 6.8276C26.9639 6.4848 26.686 6.20691 26.3432 6.20691C26.0004 6.20691 25.7225 6.4848 25.7225 6.8276C25.7225 7.1704 26.0004 7.44829 26.3432 7.44829Z" fill="white"/>
<path d="M29.4467 9.93108C29.7895 9.93108 30.0674 9.65319 30.0674 9.31039C30.0674 8.96759 29.7895 8.6897 29.4467 8.6897C29.1039 8.6897 28.826 8.96759 28.826 9.31039C28.826 9.65319 29.1039 9.93108 29.4467 9.93108Z" fill="white"/>
<path d="M15.1708 24.8277C15.5136 24.8277 15.7915 24.5498 15.7915 24.207C15.7915 23.8642 15.5136 23.5863 15.1708 23.5863C14.828 23.5863 14.5501 23.8642 14.5501 24.207C14.5501 24.5498 14.828 24.8277 15.1708 24.8277Z" fill="white"/>
<path d="M12.0673 22.3449C12.4101 22.3449 12.688 22.067 12.688 21.7242C12.688 21.3814 12.4101 21.1035 12.0673 21.1035C11.7245 21.1035 11.4467 21.3814 11.4467 21.7242C11.4467 22.067 11.7245 22.3449 12.0673 22.3449Z" fill="white"/>
<path d="M26.3432 24.8277C26.686 24.8277 26.9639 24.5498 26.9639 24.207C26.9639 23.8642 26.686 23.5863 26.3432 23.5863C26.0004 23.5863 25.7225 23.8642 25.7225 24.207C25.7225 24.5498 26.0004 24.8277 26.3432 24.8277Z" fill="white"/>
<path d="M29.4467 22.3449C29.7895 22.3449 30.0674 22.067 30.0674 21.7242C30.0674 21.3814 29.7895 21.1035 29.4467 21.1035C29.1039 21.1035 28.826 21.3814 28.826 21.7242C28.826 22.067 29.1039 22.3449 29.4467 22.3449Z" fill="white"/>
</svg>
