<svg width="47" height="47" viewBox="0 0 47 47" fill="none" xmlns="http://www.w3.org/2000/svg">
<path d="M13.7644 9.32717L11.02 6.57712C10.3834 5.93923 9.53658 5.58801 8.63541 5.58801C7.73424 5.58801 6.88741 5.93932 6.25089 6.57712L4.26156 8.57077C2.95208 9.88282 2.95208 12.0178 4.26156 13.33L7.01171 16.0858C7.28067 16.3553 7.63345 16.4901 7.9864 16.4901C8.33826 16.4901 8.6903 16.356 8.95908 16.0878C9.49738 15.5506 13.2249 11.8109 13.7625 11.2745C14.3007 10.7374 14.3016 9.86556 13.7644 9.32717Z" fill="white"/>
<path d="M23.5 0.275391C22.7396 0.275391 22.123 0.891898 22.123 1.65234V6.05859C22.123 6.81904 22.7396 7.43555 23.5 7.43555C24.2604 7.43555 24.877 6.81904 24.877 6.05859V1.65234C24.877 0.891898 24.2604 0.275391 23.5 0.275391Z" fill="white"/>
<path d="M26.8965 0H20.1035C19.3431 0 18.7266 0.616508 18.7266 1.37695C18.7266 2.1374 19.3431 2.75391 20.1035 2.75391H26.8965C27.6569 2.75391 28.2734 2.1374 28.2734 1.37695C28.2734 0.616508 27.6569 0 26.8965 0Z" fill="white"/>
<path d="M23.5 0H20.1035C19.3431 0 18.7266 0.616508 18.7266 1.37695C18.7266 2.1374 19.3431 2.75391 20.1035 2.75391H23.5V0Z" fill="white"/>
<path d="M38.4303 10.8885C34.4425 6.89236 29.1401 4.69153 23.5 4.69153C17.8599 4.69153 12.5575 6.89236 8.5697 10.8885C4.58259 14.8838 2.38681 20.1958 2.38681 25.8457C2.38681 31.4957 4.58259 36.8077 8.5697 40.803C12.5575 44.7991 17.8599 47 23.5 47C29.1401 47 34.4425 44.7991 38.4303 40.803C42.4174 36.8077 44.6132 31.4957 44.6132 25.8457C44.6132 20.1958 42.4174 14.8838 38.4303 10.8885Z" fill="white"/>
<path d="M23.5 4.69153C17.8599 4.69153 12.5575 6.89236 8.56969 10.8885C4.58259 14.8838 2.38681 20.1958 2.38681 25.8457C2.38681 31.4957 4.58259 36.8077 8.56969 40.803C12.5575 44.7991 17.8599 47 23.5 47V4.69153Z" fill="white"/>
<path d="M23.5 9.9635C14.7593 9.9635 7.64813 17.0882 7.64813 25.8457C7.64813 34.6033 14.7593 41.7281 23.5 41.7281C32.2407 41.7281 39.3518 34.6033 39.3518 25.8457C39.3518 17.0882 32.2407 9.9635 23.5 9.9635Z" fill="#D88E65"/>
<path d="M23.5 9.9635C14.7593 9.9635 7.64813 17.0882 7.64813 25.8457C7.64813 34.6033 14.7593 41.7281 23.5 41.7281V9.9635Z" fill="white"/>
<path d="M23.5 13.4029C24.2604 13.4029 24.8769 12.7864 24.8769 12.026V10.0241C24.423 9.9848 23.9639 9.9635 23.5 9.9635C23.036 9.9635 22.577 9.9848 22.123 10.0241V12.026C22.123 12.7864 22.7395 13.4029 23.5 13.4029Z" fill="white"/>
<path d="M23.5 38.2886C22.7395 38.2886 22.123 38.9051 22.123 39.6655V41.6674C22.577 41.7067 23.036 41.728 23.5 41.728C23.9639 41.728 24.423 41.7067 24.8769 41.6674V39.6655C24.8769 38.9051 24.2604 38.2886 23.5 38.2886Z" fill="white"/>
<path d="M39.2916 24.4688H37.3197C36.5593 24.4688 35.9428 25.0853 35.9428 25.8457C35.9428 26.6061 36.5593 27.2227 37.3197 27.2227H39.2916C39.3307 26.7687 39.3519 26.3096 39.3519 25.8457C39.3519 25.3818 39.3307 24.9227 39.2916 24.4688Z" fill="white"/>
<path d="M11.0572 25.8457C11.0572 25.0853 10.4407 24.4688 9.68024 24.4688H7.70835C7.66925 24.9227 7.64813 25.3818 7.64813 25.8457C7.64813 26.3096 7.66925 26.7687 7.70835 27.2227H9.68024C10.4407 27.2227 11.0572 26.6061 11.0572 25.8457Z" fill="white"/>
<path d="M26.8965 25.051H24.9539V19.4819C24.9539 18.7215 24.3374 18.105 23.5769 18.105C22.8165 18.105 22.2 18.7215 22.2 19.4819V26.4279C22.2 27.1884 22.8165 27.8049 23.5769 27.8049H26.8965C27.6569 27.8049 28.2734 27.1884 28.2734 26.4279C28.2734 25.6675 27.6569 25.051 26.8965 25.051Z" fill="white"/>
</svg>
