<svg width="29" height="28" viewBox="0 0 29 28" fill="none" xmlns="http://www.w3.org/2000/svg">
<path fill-rule="evenodd" clip-rule="evenodd" d="M24.2445 17.0884C23.6254 17.6946 23.3441 18.5682 23.4891 19.425L24.4243 24.9074C24.7158 26.614 23.3673 28 21.8375 28C21.4344 28 21.0183 27.9034 20.6152 27.6906L15.7214 25.102C15.3386 24.9004 14.9196 24.7996 14.4991 24.7996C14.08 24.7996 13.661 24.9004 13.2782 25.102L8.38441 27.6906C7.98131 27.9034 7.56516 28 7.16206 28C5.63231 28 4.28381 26.614 4.57526 24.9074L5.51051 19.425C5.65551 18.5682 5.37421 17.6946 4.75506 17.0884L0.795108 13.2062C-0.762193 11.6788 0.0976622 9.0174 2.24946 8.7024L7.72176 7.90301C8.57726 7.77841 9.31677 7.23801 9.69812 6.45821L12.1457 1.47139C12.6271 0.489993 13.5638 0 14.4991 0C15.4358 0 16.3725 0.489993 16.8539 1.47139L19.3015 6.45821C19.6828 7.23801 20.4223 7.77841 21.2778 7.90301L26.7501 8.7024C28.9019 9.0174 29.7618 11.6788 28.2045 13.2062L24.2445 17.0884Z" fill="white"/>
</svg>
