<svg width="29" height="30" viewBox="0 0 29 30" fill="none" xmlns="http://www.w3.org/2000/svg">
<path d="M14.5 20.5388L0 18.6424V0H11.7992C13.2908 0 14.5 1.25086 14.5 2.79393L15.6313 12.5538L14.5 20.5388Z" fill="#F7FCFF"/>
<path d="M14.5 20.7983L29 18.6425V0H17.2008C15.7092 0 14.5 1.25086 14.5 2.79393V20.7983Z" fill="#C79984"/>
<path d="M18.0656 7.35718H25.8313V9.11499H18.0656V7.35718Z" fill="white"/>
<path d="M18.0656 3.87134H25.8313V5.62915H18.0656V3.87134Z" fill="white"/>
<path d="M18.0656 10.796H25.8313V12.5538H18.0656V10.796Z" fill="white"/>
<path d="M11.0806 12.2685H3.3092V3.87854H11.0806V12.2685Z" fill="#C79984"/>
<path d="M15.3303 22.0448H0V18.6425H12.6539C13.6734 18.6425 14.8177 19.5308 14.8177 20.5855L15.3303 22.0448Z" fill="white"/>
<path d="M3.30286 14.16H11.0687V15.9179H3.30286V14.16Z" fill="#C79984"/>
<path d="M19.3431 30H26.909L24.672 19.1857C24.672 19.1857 20.2958 16.7276 20.7167 17.5877L20.2993 16.7347C19.8784 15.8745 18.8631 15.5302 18.0316 15.9656C17.2001 16.401 16.8673 17.4513 17.2882 18.3114L13.9123 11.2721C13.4914 10.4119 12.4761 10.0676 11.6446 10.503C10.8131 10.9384 10.4802 11.9887 10.9011 12.8489L15.1659 21.7047C14.5 24.4946 17.7661 28.9086 19.3431 30Z" fill="white"/>
<path d="M26.909 30H29V18.93L27.2346 15.4473C26.8137 14.5871 25.7984 14.2428 24.9669 14.6782C24.1355 15.1136 23.8026 16.1639 24.2235 17.024L23.7278 16.011C23.3069 15.1508 22.2916 14.8065 21.4601 15.2419C20.6287 15.6773 20.2958 16.7276 20.7167 17.5878L26.909 30Z" fill="white"/>
<path d="M19.343 30L15.1658 21.7047C13.8804 22.5169 13.3917 24.2329 14.0835 25.6466L16.2255 30H19.343Z" fill="white"/>
</svg>
